<svg width="91" height="13" viewBox="0 0 91 13" fill="none" xmlns="http://www.w3.org/2000/svg">
<path d="M0.232955 0.818182H1.70455L5.16477 9.26989H5.28409L8.74432 0.818182H10.2159V11H9.0625V3.2642H8.96307L5.78125 11H4.66761L1.4858 3.2642H1.38636V11H0.232955V0.818182ZM12.688 0.818182H14.1596L17.6199 9.26989H17.7392L21.1994 0.818182H22.671V11H21.5176V3.2642H21.4181L18.2363 11H17.1227L13.9409 3.2642H13.8414V11H12.688V0.818182ZM28.5835 0.340908L25.3022 12.5312H24.2283L27.5096 0.340908H28.5835ZM33.2754 11H30.1333V0.818182H33.4146C34.4023 0.818182 35.2475 1.02202 35.9501 1.42969C36.6528 1.83404 37.1913 2.41572 37.5659 3.17472C37.9404 3.9304 38.1277 4.83523 38.1277 5.8892C38.1277 6.94981 37.9387 7.86293 37.5609 8.62855C37.1831 9.39086 36.6329 9.97751 35.9103 10.3885C35.1878 10.7962 34.3095 11 33.2754 11ZM31.3663 9.90625H33.1958C34.0377 9.90625 34.7354 9.74384 35.2889 9.41903C35.8424 9.09422 36.255 8.63187 36.5268 8.03196C36.7986 7.43205 36.9345 6.7178 36.9345 5.8892C36.9345 5.06723 36.8002 4.35961 36.5318 3.76633C36.2633 3.16974 35.8623 2.71236 35.3287 2.39418C34.795 2.07268 34.1305 1.91193 33.335 1.91193H31.3663V9.90625ZM43.3379 11H40.1958V0.818182H43.4771C44.4648 0.818182 45.31 1.02202 46.0126 1.42969C46.7153 1.83404 47.2538 2.41572 47.6284 3.17472C48.0029 3.9304 48.1902 4.83523 48.1902 5.8892C48.1902 6.94981 48.0012 7.86293 47.6234 8.62855C47.2456 9.39086 46.6954 9.97751 45.9728 10.3885C45.2503 10.7962 44.372 11 43.3379 11ZM41.4288 9.90625H43.2583C44.1002 9.90625 44.7979 9.74384 45.3514 9.41903C45.9049 9.09422 46.3175 8.63187 46.5893 8.03196C46.8611 7.43205 46.997 6.7178 46.997 5.8892C46.997 5.06723 46.8627 4.35961 46.5943 3.76633C46.3258 3.16974 45.9248 2.71236 45.3912 2.39418C44.8575 2.07268 44.193 1.91193 43.3975 1.91193H41.4288V9.90625ZM53.1381 0.340908L49.8569 12.5312H48.783L52.0643 0.340908H53.1381ZM53.813 0.818182H55.225L58.0488 5.57102H58.1681L60.992 0.818182H62.4039L58.725 6.80398V11H57.492V6.80398L53.813 0.818182ZM63.1236 0.818182H64.5355L67.3594 5.57102H67.4787L70.3026 0.818182H71.7145L68.0355 6.80398V11H66.8026V6.80398L63.1236 0.818182ZM72.4341 0.818182H73.8461L76.6699 5.57102H76.7892L79.6131 0.818182H81.025L77.3461 6.80398V11H76.1131V6.80398L72.4341 0.818182ZM81.7447 0.818182H83.1566L85.9805 5.57102H86.0998L88.9237 0.818182H90.3356L86.6566 6.80398V11H85.4237V6.80398L81.7447 0.818182Z" fill="#A0ABBB"/>
</svg>
