<svg width="16" height="14" viewBox="0 0 16 14" fill="none" xmlns="http://www.w3.org/2000/svg">
<path d="M7.00028 6.99998H3.33362M3.27718 7.19432L1.72057 11.8441C1.59828 12.2094 1.53713 12.3921 1.58101 12.5045C1.61912 12.6022 1.70096 12.6763 1.80195 12.7044C1.91824 12.7369 2.09388 12.6579 2.44517 12.4998L13.5862 7.48634C13.929 7.33204 14.1005 7.2549 14.1535 7.14772C14.1995 7.05461 14.1995 6.94536 14.1535 6.85225C14.1005 6.74507 13.929 6.66792 13.5862 6.51363L2.44129 1.49846C2.09106 1.34086 1.91595 1.26206 1.79977 1.29439C1.69888 1.32246 1.61704 1.39632 1.57881 1.49381C1.53478 1.60608 1.59527 1.78833 1.71625 2.15283L3.27761 6.857C3.29839 6.91961 3.30878 6.95091 3.31288 6.98292C3.31652 7.01133 3.31649 7.04009 3.31277 7.06849C3.30859 7.10049 3.29812 7.13177 3.27718 7.19432Z" stroke="#4B5768" stroke-width="2" stroke-linecap="round" stroke-linejoin="round"/>
</svg>
